<svg aria-hidden="true" style="position:absolute;width:0;height:0;overflow:hidden" xmlns="http://www.w3.org/2000/svg">
  <defs>
    <symbol id="icon-telegram" viewBox="0 0 31 32">
      <path d="M15.36.233c8.483 0 15.36 6.877 15.36 15.36s-6.877 15.36-15.36 15.36S0 24.076 0 15.593 6.877.233 15.36.233zm5.299 21.621c.282-.866 1.606-9.506 1.769-11.209.05-.515-.114-.858-.432-1.012-.386-.185-.957-.093-1.621.147-.91.328-12.538 5.265-13.21 5.551-.637.271-1.239.566-1.239.994 0 .301.179.47.67.645a51.05 51.05 0 0 0 2.561.783c.733.202 1.566.026 2.034-.264.495-.308 6.214-4.134 6.624-4.47s.737.094.402.43c-.335.335-4.26 4.145-4.778 4.673-.629.64-.183 1.304.239 1.57.481.304 3.944 2.626 4.466 2.999s1.05.542 1.535.542c.485-.001.739-.639.98-1.379z"/>
    </symbol>
    <symbol id="icon-viber" viewBox="0 0 28 32">
      <path d="M27.62 6.878c-.529-1.886-1.575-3.38-3.11-4.436C22.573 1.108 20.345.634 18.421.347c-2.662-.397-5.074-.453-7.37-.172C8.897.439 7.276.86 5.795 1.54c-2.9 1.332-4.64 3.488-5.172 6.408a40 40 0 0 0-.533 3.92c-.233 2.825-.022 5.326.645 7.643.649 2.259 1.784 3.874 3.47 4.934.431.27.979.465 1.511.654.266.094.522.188.746.286v4.564a1.081 1.081 0 0 0 1.835.775l4.211-4.096c.184-.209.184-.209.372-.213a127.13 127.13 0 0 0 4.37-.163c1.77-.097 3.821-.268 5.752-1.073 1.768-.738 3.058-1.91 3.832-3.481.808-1.639 1.289-3.416 1.469-5.429.316-3.54.091-6.612-.687-9.391zm-7.332 13.473c-.423.692-1.056 1.17-1.801 1.48-.544.228-1.1.18-1.637-.048-4.505-1.906-8.036-4.911-10.371-9.228-.481-.89-.816-1.858-1.2-2.798-.079-.194-.072-.42-.107-.631.034-1.519 1.199-2.374 2.375-2.633.45-.1.848.059 1.182.379a10.39 10.39 0 0 1 2.203 3.049c.241.503.132.948-.278 1.321-.084.078-.173.15-.265.219-.935.703-1.072 1.235-.574 2.294.848 1.801 2.256 3.01 4.078 3.76.48.198.932.1 1.299-.29.049-.052.105-.102.141-.162.719-1.199 1.76-1.08 2.722-.396.632.449 1.245.922 1.871 1.38.949.7.941 1.356.362 2.303zM14.883 7.942c-.242 0-.485.019-.723.059a.74.74 0 1 1-.243-1.459 5.811 5.811 0 0 1 6.69 6.692.74.74 0 0 1-.851.607.74.74 0 0 1-.606-.851 4.332 4.332 0 0 0-4.267-5.049zm3.218 4.802a.739.739 0 0 1-1.476 0 2.218 2.218 0 0 0-2.216-2.216.739.739 0 0 1 0-1.476 3.697 3.697 0 0 1 3.693 3.693zm4.973.901a.737.737 0 0 1-.884.557.738.738 0 0 1-.557-.883 6.522 6.522 0 0 0-7.801-7.801.737.737 0 0 1-.883-.557.737.737 0 0 1 .557-.883 7.946 7.946 0 0 1 1.776-.199c4.407 0 7.992 3.585 7.992 7.992 0 .6-.067 1.197-.199 1.775z"/>
    </symbol>
    <symbol id="icon-instagram" viewBox="0 0 32 32">
      <path d="M9.455 0C4.24 0 0 4.24 0 9.455v13.091c0 5.215 4.24 9.455 9.455 9.455h13.091c5.215 0 9.455-4.24 9.455-9.455V9.455C32.001 4.24 27.761 0 22.546 0H9.455zm15.272 5.818c.8 0 1.455.655 1.455 1.455s-.655 1.455-1.455 1.455-1.455-.655-1.455-1.455.655-1.455 1.455-1.455zM16 8c4.415 0 8 3.585 8 8s-3.585 8-8 8-8-3.585-8-8 3.585-8 8-8zm0 1.455c-3.607 0-6.545 2.938-6.545 6.545s2.938 6.545 6.545 6.545c3.607 0 6.545-2.938 6.545-6.545S19.607 9.455 16 9.455z"/>
    </symbol>
    <symbol id="icon-star" viewBox="0 0 32 32">
      <path d="m15.406 23.977-4.617 2.536c-.624.343-1.395.092-1.723-.56a1.379 1.379 0 0 1-.128-.846l.882-5.372a1.37 1.37 0 0 0-.367-1.18L5.718 14.75a1.375 1.375 0 0 1-.023-1.885c.196-.21.452-.347.73-.389l5.162-.784a1.28 1.28 0 0 0 .96-.729l2.308-4.888c.312-.66 1.077-.931 1.709-.605.252.13.455.343.579.605l2.308 4.888c.186.393.545.666.96.729l5.162.784c.697.106 1.18.782 1.079 1.511-.04.29-.171.558-.372.763l-3.735 3.805a1.37 1.37 0 0 0-.367 1.18l.882 5.372c.119.726-.347 1.415-1.042 1.539-.276.05-.561.003-.809-.134l-4.617-2.536a1.228 1.228 0 0 0-1.187 0z"/>
    </symbol>
    <symbol id="icon-arrow-left" viewBox="0 0 114 32">
      <path d="m0 16 22.857 13.197V2.804L0 16.001zm114.286-2.286H20.572v4.571h93.714v-4.571z"/>
    </symbol>
    <symbol id="icon-arrow-right" viewBox="0 0 114 32">
      <path d="M114.286 16 91.429 2.803v26.393l22.857-13.197zM0 18.286h93.714v-4.571H0v4.571z"/>
    </symbol>
    <symbol id="icon-cart" viewBox="0 0 32 32">
      <path d="M6.92 8.507c-.253 0-.52-.107-.707-.293a1.005 1.005 0 0 1 0-1.413l4.84-4.84c.387-.387 1.027-.387 1.413 0s.387 1.027 0 1.413l-4.84 4.84c-.2.187-.453.293-.707.293zM25.08 8.507a.99.99 0 0 1-.707-.293l-4.84-4.84c-.387-.387-.387-1.027 0-1.413s1.027-.387 1.413 0l4.84 4.84a1.005 1.005 0 0 1 0 1.413 1.021 1.021 0 0 1-.707.293z"/>
      <path d="M26.947 14.133H5.334c-.933.013-2 .013-2.773-.76-.613-.6-.893-1.533-.893-2.907 0-3.667 2.68-3.667 3.96-3.667h20.747c1.28 0 3.96 0 3.96 3.667 0 1.387-.28 2.307-.893 2.907-.693.693-1.627.76-2.493.76zm-21.32-2H26.68c.6.013 1.16.013 1.347-.173.093-.093.293-.413.293-1.493 0-1.507-.373-1.667-1.96-1.667H5.627c-1.587 0-1.96.16-1.96 1.667 0 1.08.213 1.4.293 1.493.187.173.76.173 1.347.173h.32zM13.013 24.4c-.547 0-1-.453-1-1v-4.733c0-.547.453-1 1-1s1 .453 1 1V23.4c0 .56-.453 1-1 1zM19.147 24.4c-.547 0-1-.453-1-1v-4.733c0-.547.453-1 1-1s1 .453 1 1V23.4c0 .56-.453 1-1 1z"/>
      <path d="M19.854 30.333h-8.04c-4.773 0-5.84-2.84-6.253-5.307l-1.88-11.533c-.093-.547.28-1.053.827-1.147s1.053.28 1.147.827l1.88 11.52c.387 2.36 1.187 3.64 4.28 3.64h8.04c3.427 0 3.813-1.2 4.253-3.52l2.24-11.667a.983.983 0 0 1 1.173-.787.993.993 0 0 1 .787 1.173l-2.24 11.667c-.52 2.707-1.387 5.133-6.213 5.133z"/>
    </symbol>
    <symbol id="icon-heart" viewBox="0 0 32 32">
      <path d="M16 28.867c-.413 0-.813-.053-1.147-.173C9.76 26.947 1.666 20.747 1.666 11.587c0-4.667 3.773-8.453 8.413-8.453 2.253 0 4.36.88 5.92 2.453a8.287 8.287 0 0 1 5.92-2.453c4.64 0 8.413 3.8 8.413 8.453 0 9.173-8.093 15.36-13.187 17.107-.333.12-.733.173-1.147.173zM10.08 5.133c-3.533 0-6.413 2.893-6.413 6.453 0 9.107 8.76 14.173 11.84 15.227.24.08.76.08 1 0 3.067-1.053 11.84-6.107 11.84-15.227 0-3.56-2.88-6.453-6.413-6.453a6.334 6.334 0 0 0-5.12 2.587c-.373.507-1.227.507-1.6 0-1.24-1.653-3.107-2.587-5.133-2.587z"/>
    </symbol>
    <symbol id="icon-search" viewBox="0 0 32 32">
      <path d="M14.909 29.818C6.691 29.818 0 23.127 0 14.909S6.691 0 14.909 0s14.909 6.691 14.909 14.909-6.691 14.909-14.909 14.909zm0-27.636c-7.025 0-12.727 5.716-12.727 12.727s5.702 12.727 12.727 12.727 12.727-5.716 12.727-12.727S21.934 2.182 14.909 2.182zM30.182 31.273a1.08 1.08 0 0 1-.771-.32l-2.909-2.909c-.422-.422-.422-1.12 0-1.542s1.12-.422 1.542 0l2.909 2.909c.422.422.422 1.12 0 1.542a1.08 1.08 0 0 1-.771.32z"/>
    </symbol>
  </defs>
</svg>
