<svg aria-hidden="true" style="position:absolute;width:0;height:0;overflow:hidden" xmlns="http://www.w3.org/2000/svg">
  <defs>
    <symbol id="icon-telegram" viewBox="0 0 31 32">
      <path d="M15.36.233c8.483 0 15.36 6.877 15.36 15.36s-6.877 15.36-15.36 15.36S0 24.076 0 15.593 6.877.233 15.36.233zm5.299 21.621c.282-.866 1.606-9.506 1.769-11.209.05-.515-.114-.858-.432-1.012-.386-.185-.957-.093-1.621.147-.91.328-12.538 5.265-13.21 5.551-.637.271-1.239.566-1.239.994 0 .301.179.47.67.645a51.05 51.05 0 0 0 2.561.783c.733.202 1.566.026 2.034-.264.495-.308 6.214-4.134 6.624-4.47s.737.094.402.43c-.335.335-4.26 4.145-4.778 4.673-.629.64-.183 1.304.239 1.57.481.304 3.944 2.626 4.466 2.999s1.05.542 1.535.542c.485-.001.739-.639.98-1.379z"/>
    </symbol>
    <symbol id="icon-viber" viewBox="0 0 28 32">
      <path d="M27.62 6.878c-.529-1.886-1.575-3.38-3.11-4.436C22.573 1.108 20.345.634 18.421.347c-2.662-.397-5.074-.453-7.37-.172C8.897.439 7.276.86 5.795 1.54c-2.9 1.332-4.64 3.488-5.172 6.408a40 40 0 0 0-.533 3.92c-.233 2.825-.022 5.326.645 7.643.649 2.259 1.784 3.874 3.47 4.934.431.27.979.465 1.511.654.266.094.522.188.746.286v4.564a1.081 1.081 0 0 0 1.835.775l4.211-4.096c.184-.209.184-.209.372-.213a127.13 127.13 0 0 0 4.37-.163c1.77-.097 3.821-.268 5.752-1.073 1.768-.738 3.058-1.91 3.832-3.481.808-1.639 1.289-3.416 1.469-5.429.316-3.54.091-6.612-.687-9.391zm-7.332 13.473c-.423.692-1.056 1.17-1.801 1.48-.544.228-1.1.18-1.637-.048-4.505-1.906-8.036-4.911-10.371-9.228-.481-.89-.816-1.858-1.2-2.798-.079-.194-.072-.42-.107-.631.034-1.519 1.199-2.374 2.375-2.633.45-.1.848.059 1.182.379a10.39 10.39 0 0 1 2.203 3.049c.241.503.132.948-.278 1.321-.084.078-.173.15-.265.219-.935.703-1.072 1.235-.574 2.294.848 1.801 2.256 3.01 4.078 3.76.48.198.932.1 1.299-.29.049-.052.105-.102.141-.162.719-1.199 1.76-1.08 2.722-.396.632.449 1.245.922 1.871 1.38.949.7.941 1.356.362 2.303zM14.883 7.942c-.242 0-.485.019-.723.059a.74.74 0 1 1-.243-1.459 5.811 5.811 0 0 1 6.69 6.692.74.74 0 0 1-.851.607.74.74 0 0 1-.606-.851 4.332 4.332 0 0 0-4.267-5.049zm3.218 4.802a.739.739 0 0 1-1.476 0 2.218 2.218 0 0 0-2.216-2.216.739.739 0 0 1 0-1.476 3.697 3.697 0 0 1 3.693 3.693zm4.973.901a.737.737 0 0 1-.884.557.738.738 0 0 1-.557-.883 6.522 6.522 0 0 0-7.801-7.801.737.737 0 0 1-.883-.557.737.737 0 0 1 .557-.883 7.946 7.946 0 0 1 1.776-.199c4.407 0 7.992 3.585 7.992 7.992 0 .6-.067 1.197-.199 1.775z"/>
    </symbol>
    <symbol id="icon-instagram" viewBox="0 0 32 32">
      <path d="M9.455 0C4.24 0 0 4.24 0 9.455v13.091c0 5.215 4.24 9.455 9.455 9.455h13.091c5.215 0 9.455-4.24 9.455-9.455V9.455C32.001 4.24 27.761 0 22.546 0H9.455zm15.272 5.818c.8 0 1.455.655 1.455 1.455s-.655 1.455-1.455 1.455-1.455-.655-1.455-1.455.655-1.455 1.455-1.455zM16 8c4.415 0 8 3.585 8 8s-3.585 8-8 8-8-3.585-8-8 3.585-8 8-8zm0 1.455c-3.607 0-6.545 2.938-6.545 6.545s2.938 6.545 6.545 6.545c3.607 0 6.545-2.938 6.545-6.545S19.607 9.455 16 9.455z"/>
    </symbol>
    <symbol id="icon-star" viewBox="0 0 32 32">
      <path d="m15.406 23.977-4.617 2.536c-.624.343-1.395.092-1.723-.56a1.379 1.379 0 0 1-.128-.846l.882-5.372a1.37 1.37 0 0 0-.367-1.18L5.718 14.75a1.375 1.375 0 0 1-.023-1.885c.196-.21.452-.347.73-.389l5.162-.784a1.28 1.28 0 0 0 .96-.729l2.308-4.888c.312-.66 1.077-.931 1.709-.605.252.13.455.343.579.605l2.308 4.888c.186.393.545.666.96.729l5.162.784c.697.106 1.18.782 1.079 1.511-.04.29-.171.558-.372.763l-3.735 3.805a1.37 1.37 0 0 0-.367 1.18l.882 5.372c.119.726-.347 1.415-1.042 1.539-.276.05-.561.003-.809-.134l-4.617-2.536a1.228 1.228 0 0 0-1.187 0z"/>
    </symbol>
    <symbol id="icon-start-empty" viewBox="0 0 32 32">
      <path d="M15.109 27.965 8.184 31.77c-.935.514-2.092.138-2.584-.839a2.079 2.079 0 0 1-.192-1.269l1.323-8.058a2.057 2.057 0 0 0-.55-1.77L.579 14.127a2.065 2.065 0 0 1-.035-2.828c.294-.315.679-.52 1.095-.583L9.381 9.54a1.924 1.924 0 0 0 1.441-1.094l3.462-7.332c.468-.99 1.615-1.397 2.563-.908.377.195.683.514.869.908l3.463 7.332c.279.59.817.999 1.441 1.094l7.742 1.176c1.046.159 1.77 1.173 1.618 2.266a2.038 2.038 0 0 1-.558 1.144l-5.602 5.707a2.054 2.054 0 0 0-.55 1.77l1.323 8.058c.179 1.088-.521 2.122-1.562 2.309a1.842 1.842 0 0 1-1.214-.201l-6.925-3.805a1.842 1.842 0 0 0-1.781 0zm-1.541-2.804a5.044 5.044 0 0 1 4.863 0l4.593 2.523-.913-5.562a5.253 5.253 0 0 1 1.425-4.53l3.995-4.069-5.392-.819a5.12 5.12 0 0 1-3.854-2.891L16 4.975l-2.285 4.838a5.12 5.12 0 0 1-3.854 2.891l-5.392.819 3.995 4.069a5.259 5.259 0 0 1 1.425 4.53l-.913 5.562 4.593-2.523z"/>
    </symbol>
    <symbol id="icon-arrow-left" viewBox="0 0 114 32">
      <path fill="#959595" style="fill:var(--color1, #959595)" d="m0 16 22.857 13.197V2.804L0 16.001zm114.286-2.286H20.572v4.571h93.714v-4.571z"/>
    </symbol>
    <symbol id="icon-arrow-right" viewBox="0 0 114 32">
      <path d="M114.286 16 91.429 2.803v26.393l22.857-13.197zM0 18.286h93.714v-4.571H0v4.571z"/>
    </symbol>
    <symbol id="icon-pointer-left" viewBox="0 0 17 32">
      <path fill="#fff" style="fill:var(--color2, #fff)" d="M14.947 31.643.345 16.843a1.2 1.2 0 0 1 0-1.686L14.947.357a1.198 1.198 0 0 1 1.696-.011c.471.466.476 1.225.011 1.697L2.885 16l13.769 13.957a1.201 1.201 0 0 1-1.708 1.686z"/>
    </symbol>
    <symbol id="icon-pointer-right" viewBox="0 0 17 32">
      <path fill="#fff" style="fill:var(--color2, #fff)" d="m2.053 31.643 14.602-14.8a1.2 1.2 0 0 0 0-1.686L2.053.357A1.198 1.198 0 0 0 .357.346a1.201 1.201 0 0 0-.011 1.697L14.115 16 .346 29.957a1.201 1.201 0 0 0 1.708 1.686z"/>
    </symbol>
    <symbol id="icon-cart" viewBox="0 0 32 32">
      <path d="M6.92 8.507c-.253 0-.52-.107-.707-.293a1.005 1.005 0 0 1 0-1.413l4.84-4.84c.387-.387 1.027-.387 1.413 0s.387 1.027 0 1.413l-4.84 4.84c-.2.187-.453.293-.707.293zM25.08 8.507a.99.99 0 0 1-.707-.293l-4.84-4.84c-.387-.387-.387-1.027 0-1.413s1.027-.387 1.413 0l4.84 4.84a1.005 1.005 0 0 1 0 1.413 1.021 1.021 0 0 1-.707.293z"/>
      <path d="M26.947 14.133H5.334c-.933.013-2 .013-2.773-.76-.613-.6-.893-1.533-.893-2.907 0-3.667 2.68-3.667 3.96-3.667h20.747c1.28 0 3.96 0 3.96 3.667 0 1.387-.28 2.307-.893 2.907-.693.693-1.627.76-2.493.76zm-21.32-2H26.68c.6.013 1.16.013 1.347-.173.093-.093.293-.413.293-1.493 0-1.507-.373-1.667-1.96-1.667H5.627c-1.587 0-1.96.16-1.96 1.667 0 1.08.213 1.4.293 1.493.187.173.76.173 1.347.173h.32zM13.013 24.4c-.547 0-1-.453-1-1v-4.733c0-.547.453-1 1-1s1 .453 1 1V23.4c0 .56-.453 1-1 1zM19.147 24.4c-.547 0-1-.453-1-1v-4.733c0-.547.453-1 1-1s1 .453 1 1V23.4c0 .56-.453 1-1 1z"/>
      <path d="M19.854 30.333h-8.04c-4.773 0-5.84-2.84-6.253-5.307l-1.88-11.533c-.093-.547.28-1.053.827-1.147s1.053.28 1.147.827l1.88 11.52c.387 2.36 1.187 3.64 4.28 3.64h8.04c3.427 0 3.813-1.2 4.253-3.52l2.24-11.667a.983.983 0 0 1 1.173-.787.993.993 0 0 1 .787 1.173l-2.24 11.667c-.52 2.707-1.387 5.133-6.213 5.133z"/>
    </symbol>
    <symbol id="icon-heart" viewBox="0 0 32 32">
      <path d="M16 28.867c-.413 0-.813-.053-1.147-.173C9.76 26.947 1.666 20.747 1.666 11.587c0-4.667 3.773-8.453 8.413-8.453 2.253 0 4.36.88 5.92 2.453a8.287 8.287 0 0 1 5.92-2.453c4.64 0 8.413 3.8 8.413 8.453 0 9.173-8.093 15.36-13.187 17.107-.333.12-.733.173-1.147.173zM10.08 5.133c-3.533 0-6.413 2.893-6.413 6.453 0 9.107 8.76 14.173 11.84 15.227.24.08.76.08 1 0 3.067-1.053 11.84-6.107 11.84-15.227 0-3.56-2.88-6.453-6.413-6.453a6.334 6.334 0 0 0-5.12 2.587c-.373.507-1.227.507-1.6 0-1.24-1.653-3.107-2.587-5.133-2.587z"/>
    </symbol>
    <symbol id="icon-search" viewBox="0 0 32 32">
      <path d="M14.909 29.818C6.691 29.818 0 23.127 0 14.909S6.691 0 14.909 0s14.909 6.691 14.909 14.909-6.691 14.909-14.909 14.909zm0-27.636c-7.025 0-12.727 5.716-12.727 12.727s5.702 12.727 12.727 12.727 12.727-5.716 12.727-12.727S21.934 2.182 14.909 2.182zM30.182 31.273a1.08 1.08 0 0 1-.771-.32l-2.909-2.909c-.422-.422-.422-1.12 0-1.542s1.12-.422 1.542 0l2.909 2.909c.422.422.422 1.12 0 1.542a1.08 1.08 0 0 1-.771.32z"/>
    </symbol>
    <symbol id="icon-logo" viewBox="0 0 92 32">
      <path fill="#343434" style="fill:var(--color3, #343434)" d="M5.4 21.538V.861h2.954v20.677H5.4zm16.016.237c-1.595 0-3.062-.256-4.401-.768-1.339-.532-2.501-1.27-3.486-2.215-.985-.965-1.753-2.087-2.304-3.367s-.827-2.688-.827-4.224.276-2.944.827-4.224 1.319-2.393 2.304-3.338a10.346 10.346 0 0 1 3.515-2.215C18.383.892 19.86.626 21.475.626c1.634 0 3.131.266 4.49.798s2.511 1.329 3.456 2.393L27.59 5.648c-.847-.827-1.772-1.428-2.777-1.802-.985-.394-2.058-.591-3.22-.591a9.13 9.13 0 0 0-3.308.591A8.055 8.055 0 0 0 15.656 5.5a7.602 7.602 0 0 0-1.713 2.54c-.394.965-.591 2.018-.591 3.161 0 1.122.197 2.176.591 3.161a8.038 8.038 0 0 0 1.713 2.54c.748.709 1.625 1.26 2.629 1.654s2.097.591 3.279.591a9.926 9.926 0 0 0 3.161-.502c1.024-.354 1.969-.935 2.836-1.743l1.684 2.245c-1.024.866-2.225 1.526-3.604 1.979a13.83 13.83 0 0 1-4.224.65zm4.993-3.013v-7.68h2.836v8.064l-2.836-.384zm6.029 2.776V.861h2.422l13.676 16.985h-1.27V.861h2.954v20.677h-2.422L34.122 4.553h1.27v16.985h-2.954zm18.379 0L60.181.861h2.924l9.393 20.677h-3.102L61.037 2.515h1.182L53.86 21.538h-3.042zm3.987-5.169.798-2.363H67.24l.857 2.363H54.805zm21.384 5.169V3.431h-7.089V.861h17.103v2.57h-7.089v18.107h-2.924z"/>
      <path style="fill:var(--color4, #000)" d="M5.4 21.538H4.169v1.231H5.4v-1.231zM5.4.862V-.369H4.169V.862H5.4zm2.953 0h1.231V-.369H8.353V.862zm0 20.676v1.231h1.231v-1.231H8.353zm-1.723 0V.861H4.168v20.677H6.63zM5.4 2.092h2.954V-.37H5.4v2.462zM7.123.862v20.677h2.462V.862H7.123zm1.23 19.446H5.399v2.462h2.954v-2.462zm8.662.699-.454 1.144.015.006.44-1.15zm-3.485-2.216-.862.879.009.009.852-.888zm-2.304-3.367zm0-8.448zm2.304-3.338zm3.515-2.215.439 1.15.015-.006-.454-1.144zm8.92 0zm3.456 2.392.87.87.821-.821-.771-.867-.92.818zM27.59 5.647l-.86.88.87.85.86-.86-.87-.87zm-2.777-1.802-.457 1.143.014.005.014.005.43-1.153zm-6.528 0-.442-1.149-.008.003.449 1.146zm-2.629 1.654-.847-.894-.012.011.858.882zm-1.713 2.54-1.135-.477-.005.011 1.14.465zm0 6.322-1.143.457.006.014.006.014 1.131-.485zm1.713 2.54-.87.87.012.012.012.011.847-.894zm2.629 1.654zm6.44.089.389 1.168.013-.005-.403-1.163zm2.836-1.743.985-.738-.822-1.096-1.002.934.839.9zm1.683 2.245.795.94.886-.75-.696-.928-.985.738zm-3.604 1.979.374 1.173.01-.003-.384-1.169zm.769-2.363h-1.231v1.075l1.066.144.165-1.22zm0-7.68V9.851h-1.231v1.231h1.231zm2.835 0h1.231V9.851h-1.231v1.231zm0 8.064-.165 1.22 1.396.189v-1.409h-1.231zm-7.828 1.398c-1.462 0-2.778-.234-3.962-.687l-.879 2.299c1.494.571 3.112.849 4.841.849v-2.462zm-3.947-.681c-1.199-.476-2.224-1.13-3.087-1.959l-1.705 1.776c1.106 1.062 2.405 1.884 3.884 2.471l.908-2.288zm-3.078-1.951a9.247 9.247 0 0 1-2.035-2.975l-2.261.974a11.712 11.712 0 0 0 2.573 3.76l1.723-1.758zm-2.035-2.975c-.479-1.111-.727-2.351-.727-3.737H9.167c0 1.686.303 3.262.927 4.711l2.261-.974zm-.727-3.737c0-1.386.248-2.626.727-3.737l-2.261-.974c-.624 1.449-.927 3.025-.927 4.711h2.462zm.727-3.737a8.902 8.902 0 0 1 2.026-2.937L12.677 2.75a11.35 11.35 0 0 0-2.582 3.739l2.261.974zm2.026-2.937a9.125 9.125 0 0 1 3.102-1.953L16.605.274a11.581 11.581 0 0 0-3.928 2.477l1.705 1.775zm3.117-1.959c1.178-.468 2.499-.711 3.977-.711V-.606c-1.752 0-3.385.289-4.885.884l.908 2.288zm3.977-.711c1.499 0 2.842.243 4.041.713l.897-2.292c-1.518-.594-3.169-.882-4.938-.882v2.462zm4.041.713a7.66 7.66 0 0 1 2.985 2.064l1.84-1.635A10.128 10.128 0 0 0 26.415.277l-.897 2.292zm3.034.376L26.72 4.776l1.741 1.741 1.831-1.831-1.741-1.741zm-.101 1.821c-.957-.934-2.026-1.635-3.207-2.075l-.859 2.307c.827.308 1.609.809 2.346 1.529l1.72-1.761zm-3.179-2.064c-1.143-.457-2.373-.679-3.677-.679v2.462c1.02 0 1.937.172 2.763.503l.914-2.285zm-3.677-.679c-1.321 0-2.575.221-3.75.673l.884 2.297c.872-.336 1.824-.509 2.866-.509V2.022zm-3.758.676a9.29 9.29 0 0 0-3.026 1.906l1.693 1.787a6.827 6.827 0 0 1 2.232-1.402l-.899-2.292zm-3.038 1.918a8.856 8.856 0 0 0-1.99 2.946l2.27.953a6.375 6.375 0 0 1 1.437-2.135l-1.717-1.764zm-1.994 2.957c-.46 1.126-.682 2.339-.682 3.626h2.462c0-.998.171-1.892.499-2.695l-2.279-.93zm-.682 3.626c0 1.27.223 2.479.679 3.618l2.286-.914a7.208 7.208 0 0 1-.503-2.704h-2.462zm.69 3.645a9.274 9.274 0 0 0 1.974 2.926l1.741-1.741a6.794 6.794 0 0 1-1.452-2.155l-2.263.97zm1.998 2.949a9.283 9.283 0 0 0 3.026 1.906l.899-2.292a6.827 6.827 0 0 1-2.232-1.402l-1.693 1.787zm3.026 1.907c1.16.455 2.407.676 3.728.676v-2.462c-1.042 0-1.981-.173-2.829-.506l-.899 2.292zm3.728.676c1.229 0 2.415-.187 3.55-.565l-.778-2.335a8.703 8.703 0 0 1-2.771.439v2.462zm3.563-.57c1.201-.416 2.292-1.092 3.272-2.005l-1.678-1.801c-.753.701-1.552 1.187-2.399 1.48l.805 2.326zm1.449-2.168 1.684 2.245 1.969-1.477-1.684-2.245-1.969 1.477zm1.873.567c-.894.756-1.953 1.342-3.193 1.749l.768 2.338c1.517-.498 2.86-1.232 4.015-2.209l-1.59-1.879zm-3.182 1.746a12.584 12.584 0 0 1-3.85.592v2.462a15.04 15.04 0 0 0 4.598-.708l-.748-2.345zm2.372-1.19v-7.68h-2.462v7.68h2.462zm-1.23-6.449h2.836V9.851h-2.836v2.462zm1.604-1.231v8.064h2.462v-8.064h-2.462zm1.396 6.844-2.836-.384-.33 2.439 2.836.384.33-2.439zm3.029 3.612h-1.231v1.231h1.231v-1.231zm0-20.676V-.369h-1.231V.862h1.231zm2.422 0 .959-.772-.369-.459h-.589V.862zm13.676 16.984v1.231h2.571l-1.613-2.003-.959.772zm-1.27 0h-1.231v1.231h1.231v-1.231zm0-16.984V-.369h-1.231V.862h1.231zm2.954 0h1.231V-.369H50.22V.862zm0 20.676v1.231h1.231v-1.231H50.22zm-2.422 0-.959.772.369.459h.589v-1.231zM34.122 4.554V3.323h-2.571l1.613 2.003.959-.772zm1.27 0h1.231V3.323h-1.231v1.231zm0 16.984v1.231h1.231v-1.231h-1.231zm-1.723 0V.861h-2.462v20.677h2.462zM32.438 2.092h2.422V-.37h-2.422v2.462zm1.464-.459 13.676 16.985 1.917-1.544L35.819.089l-1.917 1.544zm14.634 14.982h-1.27v2.462h1.27v-2.462zm-.039 1.231V.861h-2.462v16.985h2.462zM47.266 2.092h2.954V-.37h-2.954v2.462zm1.723-1.23v20.677h2.462V.862h-2.462zm1.231 19.446h-2.422v2.462h2.422v-2.462zm-1.463.459L35.081 3.782l-1.917 1.544L46.84 22.311l1.917-1.544zM34.122 5.785h1.27V3.323h-1.27v2.462zm.039-1.231v16.985h2.462V4.554h-2.462zm1.231 15.754h-2.954v2.462h2.954v-2.462zm15.425 1.23-1.121-.508-.787 1.738h1.908v-1.231zM60.18.862V-.369h-.794l-.327.723 1.121.508zm2.925 0 1.121-.509-.328-.722h-.793V.862zm9.393 20.676v1.231h1.911l-.79-1.74-1.121.509zm-3.102 0-1.127.495.323.736h.804v-1.231zM61.037 2.516V1.285h-1.885l.758 1.726 1.127-.495zm1.181 0 1.127.495.758-1.726h-1.885v1.231zm-8.359 19.022v1.231h.804l.323-.736-1.127-.495zm.945-5.169-1.166-.394-.548 1.624h1.714v-1.231zm.798-2.363v-1.231h-.884l-.283.837 1.166.394zm11.638 0 1.157-.419-.294-.811h-.863v1.231zm.857 2.363V17.6h1.755l-.598-1.65-1.157.419zm-16.159 5.677 9.364-20.677L59.06.354l-9.364 20.677 2.242 1.015zM60.18 2.092h2.924V-.37H60.18v2.462zm1.804-.721 9.393 20.677 2.241-1.018L64.225.353l-2.241 1.018zm10.514 18.937h-3.102v2.462h3.102v-2.462zm-1.975.735L62.164 2.02l-2.254.99 8.359 19.023 2.254-.99zM61.037 3.746h1.182V1.284h-1.182v2.462zm.055-1.725-8.359 19.023 2.254.99 8.359-19.023-2.254-.99zm-7.233 18.287h-3.042v2.462h3.042v-2.462zm2.111-3.545.798-2.363-2.332-.787-.798 2.363 2.332.787zm-.368-1.526H67.24v-2.462H55.602v2.462zm10.481-.811.857 2.363 2.314-.839-.857-2.363-2.314.839zm2.014.712H54.805V17.6h13.292v-2.462zm8.091 6.4h-1.231v1.231h1.231v-1.231zm0-18.107h1.231V2.2h-1.231v1.231zm-7.089 0h-1.231v1.231h1.231V3.431zm0-2.569V-.369h-1.231V.862h1.231zm17.103 0h1.231V-.369h-1.231V.862zm0 2.569v1.231h1.231V3.431h-1.231zm-7.09 0V2.2h-1.231v1.231h1.231zm0 18.107v1.231h1.231v-1.231h-1.231zm-1.693 0V3.431h-2.462v18.107h2.462zM76.188 2.201h-7.089v2.462h7.089V2.201zm-5.858 1.23V.861h-2.462v2.57h2.462zm-1.231-1.339h17.103V-.37H69.099v2.462zM84.971.862v2.57h2.462V.862h-2.462zm1.231 1.339h-7.089v2.462h7.089V2.201zm-8.32 1.23v18.107h2.462V3.431h-2.462zm1.23 16.877h-2.924v2.462h2.924v-2.462z"/>
    </symbol>
  </defs>
</svg>
